<?xml version="1.0" encoding="UTF-8" standalone="no"?><!DOCTYPE svg PUBLIC "-//W3C//DTD SVG 1.1//EN" "http://www.w3.org/Graphics/SVG/1.1/DTD/svg11.dtd"><svg width="100%" height="100%" viewBox="0 0 504 499" version="1.1" xmlns="http://www.w3.org/2000/svg" xmlns:xlink="http://www.w3.org/1999/xlink" xml:space="preserve" xmlns:serif="http://www.serif.com/" style="fill-rule:evenodd;clip-rule:evenodd;stroke-linejoin:round;stroke-miterlimit:2;"><g><path d="M170.747,490.536c35.834,10.305 111.825,10.542 162,0l124,-317l-64,-108l-282,-10l-62,316l122,119Z" style="fill:#fff;"/><path d="M251.617,0c-138.946,0 -251.617,112.646 -251.617,251.617c0,111.166 72.096,205.483 172.071,238.754c12.575,2.329 17.191,-5.459 17.191,-12.104c0,-5.996 -0.233,-25.821 -0.341,-46.846c-70,15.221 -84.771,-29.688 -84.771,-29.688c-11.446,-29.079 -27.938,-36.816 -27.938,-36.816c-22.829,-15.617 1.721,-15.296 1.721,-15.296c25.267,1.775 38.571,25.933 38.571,25.933c22.442,38.463 58.863,27.342 73.221,20.913c2.262,-16.259 8.779,-27.363 15.975,-33.646c-55.888,-6.359 -114.638,-27.938 -114.638,-124.35c0,-27.467 9.83,-49.917 25.925,-67.538c-2.612,-6.337 -11.225,-31.929 2.442,-66.587c0,-0 21.129,-6.759 69.208,25.796c20.071,-5.575 41.596,-8.371 62.98,-8.471c21.383,0.1 42.925,2.896 63.033,8.471c48.025,-32.555 69.125,-25.796 69.125,-25.796c13.696,34.658 5.083,60.25 2.471,66.587c16.133,17.621 25.891,40.071 25.891,67.538c0,96.646 -58.862,117.921 -114.891,124.15c9.025,7.808 17.066,23.121 17.066,46.596c0,33.666 -0.287,60.762 -0.287,69.05c-0,6.7 4.525,14.541 17.279,12.075c99.925,-33.309 171.929,-127.592 171.929,-238.725c0,-138.971 -112.654,-251.617 -251.616,-251.617" style="fill:#181717;"/><path d="M95.302,361.263c-0.555,1.254 -2.521,1.629 -4.313,0.771c-1.829,-0.825 -2.85,-2.529 -2.258,-3.783c0.541,-1.284 2.508,-1.642 4.333,-0.784c1.825,0.821 2.867,2.542 2.238,3.796" style="fill:#181717;fill-rule:nonzero;"/><path d="M105.495,372.632c-1.2,1.113 -3.55,0.596 -5.138,-1.162c-1.65,-1.755 -1.954,-4.105 -0.737,-5.23c1.237,-1.112 3.512,-0.591 5.158,1.163c1.65,1.775 1.971,4.1 0.717,5.229" style="fill:#181717;fill-rule:nonzero;"/><path d="M115.415,387.122c-1.542,1.075 -4.067,0.07 -5.625,-2.167c-1.542,-2.242 -1.542,-4.925 0.037,-6c1.559,-1.075 4.046,-0.104 5.625,2.112c1.538,2.275 1.538,4.959 -0.037,6.055" style="fill:#181717;fill-rule:nonzero;"/><path d="M129.005,401.123c-1.379,1.521 -4.316,1.113 -6.466,-0.966c-2.2,-2.025 -2.813,-4.905 -1.434,-6.425c1.4,-1.525 4.355,-1.096 6.521,0.962c2.184,2.025 2.846,4.925 1.379,6.429" style="fill:#181717;fill-rule:nonzero;"/><path d="M147.755,409.253c-0.612,1.971 -3.437,2.862 -6.287,2.025c-2.846,-0.863 -4.708,-3.167 -4.133,-5.158c0.591,-1.984 3.433,-2.917 6.304,-2.021c2.841,0.858 4.708,3.15 4.116,5.154" style="fill:#181717;fill-rule:nonzero;"/><path d="M168.349,410.759c0.071,2.075 -2.346,3.796 -5.338,3.833c-3.008,0.067 -5.446,-1.612 -5.479,-3.654c0,-2.096 2.367,-3.796 5.371,-3.85c2.992,-0.058 5.446,1.612 5.446,3.671" style="fill:#181717;fill-rule:nonzero;"/><path d="M187.51,407.499c0.358,2.021 -1.721,4.1 -4.692,4.654c-2.921,0.538 -5.625,-0.716 -5.996,-2.721c-0.362,-2.075 1.75,-4.154 4.671,-4.691c2.975,-0.517 5.637,0.7 6.017,2.758" style="fill:#181717;fill-rule:nonzero;"/></g></svg>